Coordinates
version=1
nRows=7
nColumns=33
inDegrees=yes

Units are S.I. units (second, meters, Newtons, ...)
Angles are in degrees.

endheader
time	ground_thorax_rot_x	ground_thorax_rot_y	ground_thorax_rot_z	ground_thorax_tx	ground_thorax_ty	ground_thorax_tz	clav_prot_r	clav_elev_r	scapula_abduction_r	scapula_elevation_r	scapula_upward_rot_r	scapula_winging_r	shoulder_elv_r	plane_of_elev_r	axial_rot_r	elbow_flexion_r	pro_sup_r	wrist_flex_r	wrist_dev_r	clav_prot_l	clav_elev_l	scapula_abduction_l	scapula_elevation_l	scapula_upward_rot_l	scapula_winging_l	shoulder_elv_l	plane_of_elev_l	axial_rot_l	elbow_flexion_l	pro_sup_l	wrist_flex_l	wrist_dev_l
      3.50000000	     30.75889107	     25.99129182	     35.49850848	   -101.08661705	    868.18311078	    -44.12694184	     12.49583569	     34.03151980	     28.75952706	     45.00000000	    -45.00000000	   2069.24508335	   1695.33113386	    159.76485639	     28.77141834	    346.87615266	     44.80584056	      5.18125962	      4.24137778	     -5.11287399	    -45.00000000	    -41.46855340	     45.00000000	    -45.00000000	   6225.76697847	  -5679.66045528	     25.43538272	     26.61955268	    710.47517120	     48.11982059	     11.91616773	    -24.14699640
      3.51000000	     30.56409573	     26.11609938	     35.77781432	   -101.35546426	    867.43169351	    -44.01344546	     12.86010556	     33.91408148	     28.42668740	     45.00000000	    -45.00000000	   2069.40728849	   1695.38499360	    159.76768211	     28.95810174	    346.87194130	     44.81689582	      5.29553378	      4.48306228	     -4.90820723	    -45.00000000	    -41.62224265	     45.00000000	    -45.00000000	   6225.94810866	  -5679.87234223	     25.44027800	     26.37187879	    710.42687860	     46.88946187	     12.45844492	    -24.03130270
      3.52000000	     30.60323509	     25.97929482	     35.84174764	   -101.41375832	    866.63007007	    -43.90436931	     12.40187189	     34.00589747	     28.67243666	     45.00000000	    -45.00000000	   2069.38569751	   1695.27833851	    159.89306265	     29.14093518	    346.80085978	     44.92347603	      5.14056915	      4.18930038	     -5.04506445	    -45.00000000	    -41.26691330	     45.00000000	    -45.00000000	   6225.87523717	  -5679.88104839	     25.44623561	     26.54255178	    710.33747477	     45.81588116	     12.28834659	    -23.87505844
      3.53000000	     30.50948274	     26.09160370	     35.94246517	   -101.29096226	    865.79799970	    -43.80061417	     12.73385708	     33.95771751	     28.50708055	     45.00000000	    -45.00000000	   2069.43977995	   1695.20710055	    159.96043555	     29.11798455	    346.78737300	     45.03865904	      5.18347225	      4.40925180	     -5.01602795	    -45.00000000	    -41.43690729	     45.00000000	    -45.00000000	   6225.92095766	  -5680.06426771	     25.53399563	     26.84854205	    710.31257085	     44.87289466	     12.78593763	    -23.78012735
      3.54000000	     30.36028969	     26.23651572	     36.18509693	   -101.01695546	    864.95870798	    -43.70340567	     12.64803060	     33.93127110	     28.27296416	     45.00000000	    -45.00000000	   2069.49004436	   1695.19778602	    159.88078818	     29.06323543	    346.79482559	     45.20644759	      5.25523758	      4.46259958	     -5.18611590	    -45.00000000	    -41.34112996	     45.00000000	    -45.00000000	   6225.78362553	  -5680.02506684	     25.51417914	     27.01021377	    710.09364604	     44.17816981	     12.81881112	    -23.61185947
      3.55000000	     30.33895265	     26.15694239	     36.33182768	   -100.62036805	    864.13914930	    -43.61366641	     12.70856773	     33.94909771	     28.44888640	     45.00000000	    -45.00000000	   2069.63946771	   1695.09675107	    159.98462013	     29.00967408	    346.83219376	     45.39431317	      5.15838356	      4.45772859	     -5.09149773	    -45.00000000	    -41.26345820	     45.00000000	    -45.00000000	   6225.96869820	  -5680.15834435	     25.62518005	     27.35630180	    710.23040443	     43.62173292	     13.10500278	    -23.49044378
      3.56000000	     30.16621107	     26.41140037	     36.61232742	   -100.11945168	    863.35554109	    -43.52955170	     12.76184874	     33.93645960	     28.11310151	     45.00000000	    -45.00000000	   2069.57902490	   1695.10642302	    159.77465930	     28.84842034	    346.77719144	     45.63406447	      5.26451722	      4.53724584	     -5.29430451	    -45.00000000	    -41.22665516	     45.00000000	    -45.00000000	   6225.71506646	  -5680.07003575	     25.51727616	     27.54432753	    710.00485193	     43.09854561	     12.98493481	    -23.50351586
